<svg xmlns="http://www.w3.org/2000/svg" width="900" height="578" viewBox="0 0 900 578" role="img" aria-label="Snowy terminal: whoami, profile views, skills and projects for Tushar Saharan">
<defs>
<linearGradient id="surf" x1="0" y1="0" x2="0" y2="1">
  <stop offset="0" stop-color="#FBFDFF"/><stop offset="1" stop-color="#EAF2FA"/>
</linearGradient>
<linearGradient id="bar" x1="0" y1="0" x2="0" y2="1">
  <stop offset="0" stop-color="#F4F9FF"/><stop offset="1" stop-color="#DCE9F5"/>
</linearGradient>
<linearGradient id="ice" x1="0" y1="0" x2="1" y2="1">
  <stop offset="0" stop-color="#ffffff" stop-opacity=".95"/><stop offset="1" stop-color="#CFE4F5" stop-opacity=".25"/>
</linearGradient>
<radialGradient id="frost" cx="50%" cy="0%" r="95%">
  <stop offset="0" stop-color="#ffffff" stop-opacity=".9"/><stop offset="1" stop-color="#ffffff" stop-opacity="0"/>
</radialGradient>
<clipPath id="win"><rect x="0" y="0" width="900" height="578" rx="18"/></clipPath>
<clipPath id="c0"><rect class="ln0" x="40" y="120" width="900" height="20" style="transform-origin:40px 0"/></clipPath>
<clipPath id="c1"><rect class="ln1" x="40" y="142" width="900" height="20" style="transform-origin:40px 0"/></clipPath>
<clipPath id="c3"><rect class="ln3" x="40" y="186" width="900" height="20" style="transform-origin:40px 0"/></clipPath>
<clipPath id="c4"><rect class="ln4" x="40" y="208" width="900" height="20" style="transform-origin:40px 0"/></clipPath>
<clipPath id="c6"><rect class="ln6" x="40" y="252" width="900" height="20" style="transform-origin:40px 0"/></clipPath>
<clipPath id="c7"><rect class="ln7" x="40" y="274" width="900" height="20" style="transform-origin:40px 0"/></clipPath>
<clipPath id="c8"><rect class="ln8" x="40" y="296" width="900" height="20" style="transform-origin:40px 0"/></clipPath>
<clipPath id="c9"><rect class="ln9" x="40" y="318" width="900" height="20" style="transform-origin:40px 0"/></clipPath>
<clipPath id="c10"><rect class="ln10" x="40" y="340" width="900" height="20" style="transform-origin:40px 0"/></clipPath>
<clipPath id="c12"><rect class="ln12" x="40" y="384" width="900" height="20" style="transform-origin:40px 0"/></clipPath>
<clipPath id="c13"><rect class="ln13" x="40" y="406" width="900" height="20" style="transform-origin:40px 0"/></clipPath>
<clipPath id="c14"><rect class="ln14" x="40" y="428" width="900" height="20" style="transform-origin:40px 0"/></clipPath>
<clipPath id="c15"><rect class="ln15" x="40" y="450" width="900" height="20" style="transform-origin:40px 0"/></clipPath>
<clipPath id="c16"><rect class="ln16" x="40" y="472" width="900" height="20" style="transform-origin:40px 0"/></clipPath>
<clipPath id="c18"><rect class="ln18" x="40" y="516" width="900" height="20" style="transform-origin:40px 0"/></clipPath>
<style>
.m{font-family:'SFMono-Regular',ui-monospace,'DejaVu Sans Mono',Menlo,Consolas,monospace;font-size:14px;letter-spacing:.2px}
.usr{fill:#2E6E9E;font-weight:700}
.pth{fill:#6E97B7}
.dim{fill:#9DB6C9}
.arw{fill:#4E8FBF;font-weight:700}
.cmd{fill:#1C2F42;font-weight:700}
.out{fill:#3C566C}
.key{fill:#7FA8C6;font-weight:700}
.ttl{font-family:ui-monospace,'DejaVu Sans Mono',Menlo,monospace;font-size:12.5px;fill:#6E8DA6;letter-spacing:1.2px}
.cur{fill:#2E6E9E;animation:blink 1.05s steps(1) infinite}
@keyframes blink{0%,49%{opacity:1}50%,100%{opacity:0}}
@keyframes shim{0%,100%{opacity:.35}50%{opacity:1}}
.ln0{animation:t0 22.0s linear infinite}
@keyframes t0{0%,2.727%{transform:scaleX(0)}5.178%,100%{transform:scaleX(1)}}
.ln1{animation:t1 22.0s linear infinite}
@keyframes t1{0%,5.178%{transform:scaleX(0)}10.387%,100%{transform:scaleX(1)}}
.ln3{animation:t3 22.0s linear infinite}
@keyframes t3{0%,10.795%{transform:scaleX(0)}14.166%,100%{transform:scaleX(1)}}
.ln4{animation:t4 22.0s linear infinite}
@keyframes t4{0%,14.166%{transform:scaleX(0)}18.966%,100%{transform:scaleX(1)}}
.ln6{animation:t6 22.0s linear infinite}
@keyframes t6{0%,19.374%{transform:scaleX(0)}22.54%,100%{transform:scaleX(1)}}
.ln7{animation:t7 22.0s linear infinite}
@keyframes t7{0%,22.54%{transform:scaleX(0)}27.34%,100%{transform:scaleX(1)}}
.ln8{animation:t8 22.0s linear infinite}
@keyframes t8{0%,27.34%{transform:scaleX(0)}33.876%,100%{transform:scaleX(1)}}
.ln9{animation:t9 22.0s linear infinite}
@keyframes t9{0%,33.876%{transform:scaleX(0)}40.106%,100%{transform:scaleX(1)}}
.ln10{animation:t10 22.0s linear infinite}
@keyframes t10{0%,40.106%{transform:scaleX(0)}46.029%,100%{transform:scaleX(1)}}
.ln12{animation:t12 22.0s linear infinite}
@keyframes t12{0%,46.438%{transform:scaleX(0)}50.217%,100%{transform:scaleX(1)}}
.ln13{animation:t13 22.0s linear infinite}
@keyframes t13{0%,50.217%{transform:scaleX(0)}56.446%,100%{transform:scaleX(1)}}
.ln14{animation:t14 22.0s linear infinite}
@keyframes t14{0%,56.446%{transform:scaleX(0)}62.472%,100%{transform:scaleX(1)}}
.ln15{animation:t15 22.0s linear infinite}
@keyframes t15{0%,62.472%{transform:scaleX(0)}68.293%,100%{transform:scaleX(1)}}
.ln16{animation:t16 22.0s linear infinite}
@keyframes t16{0%,68.293%{transform:scaleX(0)}73.91%,100%{transform:scaleX(1)}}
.ln18{animation:t18 22.0s linear infinite}
@keyframes t18{0%,74.319%{transform:scaleX(0)}74.727%,100%{transform:scaleX(1)}}
@keyframes fall0{0%{transform:translate(0,-20px)}100%{transform:translate(2px,608px)}}
@keyframes fall1{0%{transform:translate(0,-20px)}100%{transform:translate(-22px,608px)}}
@keyframes fall2{0%{transform:translate(0,-20px)}100%{transform:translate(7px,608px)}}
@keyframes fall3{0%{transform:translate(0,-20px)}100%{transform:translate(19px,608px)}}
@keyframes fall4{0%{transform:translate(0,-20px)}100%{transform:translate(-17px,608px)}}
@keyframes fall5{0%{transform:translate(0,-20px)}100%{transform:translate(-23px,608px)}}
</style>
</defs>
<g clip-path="url(#win)">
  <rect x="0" y="0" width="900" height="578" fill="url(#surf)"/>
  <g><circle cx="298.5" cy="-10" r="1.3" fill="#ffffff" opacity="0.63" style="animation:fall0 16.2s linear -1.4s infinite"/><circle cx="69.9" cy="-10" r="1.9" fill="#ffffff" opacity="0.50" style="animation:fall1 9.4s linear -8.7s infinite"/><circle cx="385.1" cy="-10" r="2.3" fill="#ffffff" opacity="0.92" style="animation:fall2 10.4s linear -4.5s infinite"/><circle cx="516.3" cy="-10" r="1.7" fill="#ffffff" opacity="0.59" style="animation:fall3 19.7s linear -0.9s infinite"/><circle cx="144.1" cy="-10" r="1.3" fill="#ffffff" opacity="0.74" style="animation:fall4 12.4s linear -16.3s infinite"/><circle cx="569.5" cy="-10" r="1.7" fill="#ffffff" opacity="0.55" style="animation:fall5 15.0s linear -1.3s infinite"/><circle cx="605.1" cy="-10" r="1.7" fill="#ffffff" opacity="0.60" style="animation:fall0 12.5s linear -11.7s infinite"/><circle cx="703.2" cy="-10" r="2.1" fill="#ffffff" opacity="0.89" style="animation:fall1 11.7s linear -11.5s infinite"/><circle cx="647.3" cy="-10" r="1.5" fill="#ffffff" opacity="0.83" style="animation:fall2 19.8s linear -2.4s infinite"/><circle cx="150.7" cy="-10" r="1.8" fill="#ffffff" opacity="0.74" style="animation:fall3 9.4s linear -13.4s infinite"/><circle cx="772.9" cy="-10" r="1.6" fill="#ffffff" opacity="0.68" style="animation:fall4 16.6s linear -11.9s infinite"/><circle cx="742.4" cy="-10" r="2.5" fill="#ffffff" opacity="0.80" style="animation:fall5 14.2s linear -13.3s infinite"/><circle cx="576.5" cy="-10" r="2.6" fill="#ffffff" opacity="0.78" style="animation:fall0 18.0s linear -5.7s infinite"/><circle cx="39.4" cy="-10" r="1.8" fill="#ffffff" opacity="0.83" style="animation:fall1 10.8s linear -2.3s infinite"/><circle cx="131.2" cy="-10" r="1.5" fill="#ffffff" opacity="0.67" style="animation:fall2 13.3s linear -17.4s infinite"/><circle cx="492.5" cy="-10" r="2.4" fill="#ffffff" opacity="0.66" style="animation:fall3 18.0s linear -17.3s infinite"/><circle cx="328.5" cy="-10" r="2.4" fill="#ffffff" opacity="0.57" style="animation:fall4 19.5s linear -3.0s infinite"/><circle cx="220.7" cy="-10" r="1.8" fill="#ffffff" opacity="0.66" style="animation:fall5 15.5s linear -5.3s infinite"/><circle cx="337.6" cy="-10" r="1.9" fill="#ffffff" opacity="0.76" style="animation:fall0 19.5s linear -13.8s infinite"/><circle cx="601.5" cy="-10" r="1.2" fill="#ffffff" opacity="0.85" style="animation:fall1 18.9s linear -15.6s infinite"/><circle cx="357.4" cy="-10" r="1.7" fill="#ffffff" opacity="0.48" style="animation:fall2 10.1s linear -12.7s infinite"/><circle cx="199.5" cy="-10" r="1.3" fill="#ffffff" opacity="0.53" style="animation:fall3 12.7s linear -1.1s infinite"/><circle cx="107.3" cy="-10" r="1.6" fill="#ffffff" opacity="0.52" style="animation:fall4 9.3s linear -17.5s infinite"/><circle cx="236.9" cy="-10" r="1.6" fill="#ffffff" opacity="0.95" style="animation:fall5 13.0s linear -2.5s infinite"/><circle cx="420.8" cy="-10" r="1.8" fill="#ffffff" opacity="0.58" style="animation:fall0 9.9s linear -2.0s infinite"/><circle cx="732.8" cy="-10" r="1.3" fill="#ffffff" opacity="0.52" style="animation:fall1 9.3s linear -19.0s infinite"/><circle cx="487.1" cy="-10" r="1.1" fill="#ffffff" opacity="0.80" style="animation:fall2 14.8s linear -19.6s infinite"/><circle cx="244.6" cy="-10" r="1.7" fill="#ffffff" opacity="0.84" style="animation:fall3 10.8s linear -15.4s infinite"/><circle cx="303.5" cy="-10" r="1.4" fill="#ffffff" opacity="0.85" style="animation:fall4 17.9s linear -19.7s infinite"/><circle cx="723.8" cy="-10" r="2.2" fill="#ffffff" opacity="0.46" style="animation:fall5 11.5s linear -10.4s infinite"/><circle cx="44.0" cy="-10" r="1.5" fill="#ffffff" opacity="0.67" style="animation:fall0 11.9s linear -13.9s infinite"/><circle cx="825.8" cy="-10" r="2.6" fill="#ffffff" opacity="0.56" style="animation:fall1 19.5s linear -7.3s infinite"/><circle cx="189.2" cy="-10" r="1.4" fill="#ffffff" opacity="0.69" style="animation:fall2 15.9s linear -18.0s infinite"/><circle cx="581.6" cy="-10" r="2.3" fill="#ffffff" opacity="0.84" style="animation:fall3 9.9s linear -13.2s infinite"/></g>
  <rect x="0" y="0" width="900" height="578" fill="url(#frost)" opacity=".55"/>
  <rect x="0" y="0" width="900" height="46" fill="url(#bar)"/>
  <line x1="0" y1="46" x2="900" y2="46" stroke="#CFE0EE" stroke-width="1"/>
  <circle cx="26" cy="23" r="6" fill="#BFD9EC" stroke="#ffffff" stroke-width="1.4"/>
  <circle cx="48" cy="23" r="6" fill="#D6E7F4" stroke="#ffffff" stroke-width="1.4"/>
  <circle cx="70" cy="23" r="6" fill="#E6F1FA" stroke="#ffffff" stroke-width="1.4"/>
  <text x="450.0" y="27" text-anchor="middle" class="ttl">tushar@alpine &#8212; ~</text>
  <text x="40" y="102" class="m dim">Last login: winter, somewhere above the treeline</text>
  <g clip-path="url(#c0)"><text x="40" y="136" class="m usr">tushar@alpine</text><text x="157.88" y="136" class="m dim">:</text><text x="166.3" y="136" class="m pth">~</text><text x="183.14" y="136" class="m arw">$</text><text x="199.98" y="136" class="m cmd">whoami</text></g><g clip-path="url(#c1)"><text x="40" y="158" class="m out">Tushar Saharan — Full-Stack Developer &amp; AI Engineer</text></g><g clip-path="url(#c3)"><text x="40" y="202" class="m usr">tushar@alpine</text><text x="157.88" y="202" class="m dim">:</text><text x="166.3" y="202" class="m pth">~</text><text x="183.14" y="202" class="m arw">$</text><text x="199.98" y="202" class="m cmd">profile --views</text></g><g clip-path="url(#c4)"><text x="40" y="224" class="m out">visitors  counted live — badge below the window</text></g><g clip-path="url(#c6)"><text x="40" y="268" class="m usr">tushar@alpine</text><text x="157.88" y="268" class="m dim">:</text><text x="166.3" y="268" class="m pth">~</text><text x="183.14" y="268" class="m arw">$</text><text x="199.98" y="268" class="m cmd">skills --list</text></g><g clip-path="url(#c7)"><text x="40" y="290" class="m key">languages</text><text x="174.72" y="290" class="m out">TypeScript · Python · C++ · SQL</text></g><g clip-path="url(#c8)"><text x="40" y="312" class="m key">frontend</text><text x="174.72" y="312" class="m out">React · Next.js · TanStack · Tailwind · Three.js</text></g><g clip-path="url(#c9)"><text x="40" y="334" class="m key">backend</text><text x="174.72" y="334" class="m out">Node · Express · FastAPI · Postgres · MongoDB</text></g><g clip-path="url(#c10)"><text x="40" y="356" class="m key">ai</text><text x="174.72" y="356" class="m out">Gemini · Bedrock · RAG · agentic pipelines</text></g><g clip-path="url(#c12)"><text x="40" y="400" class="m usr">tushar@alpine</text><text x="157.88" y="400" class="m dim">:</text><text x="166.3" y="400" class="m pth">~</text><text x="183.14" y="400" class="m arw">$</text><text x="199.98" y="400" class="m cmd">projects --featured</text></g><g clip-path="url(#c13)"><text x="40" y="422" class="m key">jobly</text><text x="174.72" y="422" class="m out">AI recruitment platform, weighted ATS scoring</text></g><g clip-path="url(#c14)"><text x="40" y="444" class="m key">needspeak</text><text x="174.72" y="444" class="m out">intent-to-cart, hybrid BM25 + vector search</text></g><g clip-path="url(#c15)"><text x="40" y="466" class="m key">civic-pulse</text><text x="174.72" y="466" class="m out">realtime civic reporting, DBSCAN hotspots</text></g><g clip-path="url(#c16)"><text x="40" y="488" class="m key">resume-parser</text><text x="174.72" y="488" class="m out">Gemini PDF parsing, skill normalization</text></g><g clip-path="url(#c18)"><text x="40" y="532" class="m arw">$</text><rect x="56.84" y="521" width="9" height="15" class="cur"/></g>
  
<path d="M0,84 L40,104 L26,132 L64,150 L48,182 L86,196 L70,232 L0,214 Z" fill="url(#ice)" opacity=".55"/>
<path d="M900,84 L854,108 L872,138 L830,158 L848,190 L804,204 L822,240 L900,220 Z" fill="url(#ice)" opacity=".5"/>
<path d="M0,578 L0,458 L38,482 L24,514 L62,532 L46,564 L92,578 Z" fill="url(#ice)" opacity=".45"/>
<path d="M900,578 L900,438 L856,466 L876,500 L832,522 L856,558 L796,578 Z" fill="url(#ice)" opacity=".42"/>
<path d="M0,46 L60,72 L120,50 L186,78 L250,52 L316,80 L380,50 L450,78 L520,52 L590,80 L656,50 L722,78 L790,52 L850,74 L900,50 L900,46 Z" fill="#ffffff" opacity=".9"/>
<path d="M0,46 L60,72 L120,50 L186,78 L250,52 L316,80 L380,50 L450,78 L520,52 L590,80 L656,50 L722,78 L790,52 L850,74 L900,50" fill="none" stroke="#CFE4F5" stroke-width="1.2" opacity=".8"/>

  <path d="M58.0,60.0 L84.0,60.0 M72.3,60.0 L75.9,65.1 M72.3,60.0 L75.9,54.9 M79.3,60.0 L82.9,65.1 M79.3,60.0 L82.9,54.9 M58.0,60.0 L71.0,82.5 M65.2,72.4 L62.5,78.0 M65.2,72.4 L71.4,72.9 M68.7,78.5 L66.0,84.1 M68.7,78.5 L74.9,79.0 M58.0,60.0 L45.0,82.5 M50.9,72.4 L44.6,72.9 M50.9,72.4 L53.5,78.0 M47.3,78.5 L41.1,79.0 M47.3,78.5 L50.0,84.1 M58.0,60.0 L32.0,60.0 M43.7,60.0 L40.1,54.9 M43.7,60.0 L40.1,65.1 M36.7,60.0 L33.1,54.9 M36.7,60.0 L33.1,65.1 M58.0,60.0 L45.0,37.5 M50.8,47.6 L53.5,42.0 M50.8,47.6 L44.6,47.1 M47.3,41.5 L50.0,35.9 M47.3,41.5 L41.1,41.0 M58.0,60.0 L71.0,37.5 M65.2,47.6 L71.4,47.1 M65.2,47.6 L62.5,42.0 M68.7,41.5 L74.9,41.0 M68.7,41.5 L66.0,35.9" stroke="#cfe4f5" stroke-width="1.4" fill="none" stroke-linecap="round" opacity="0.9" style="animation:shim 6s ease-in-out 0s infinite"/><path d="M848.0,58.0 L868.0,58.0 M859.0,58.0 L861.8,61.9 M859.0,58.0 L861.8,54.1 M864.4,58.0 L867.2,61.9 M864.4,58.0 L867.2,54.1 M848.0,58.0 L858.0,75.3 M853.5,67.5 L851.5,71.9 M853.5,67.5 L858.3,67.9 M856.2,72.2 L854.2,76.6 M856.2,72.2 L861.0,72.6 M848.0,58.0 L838.0,75.3 M842.5,67.5 L837.7,67.9 M842.5,67.5 L844.5,71.9 M839.8,72.2 L835.0,72.6 M839.8,72.2 L841.8,76.6 M848.0,58.0 L828.0,58.0 M837.0,58.0 L834.2,54.1 M837.0,58.0 L834.2,61.9 M831.6,58.0 L828.8,54.1 M831.6,58.0 L828.8,61.9 M848.0,58.0 L838.0,40.7 M842.5,48.5 L844.5,44.1 M842.5,48.5 L837.7,48.1 M839.8,43.8 L841.8,39.4 M839.8,43.8 L835.0,43.4 M848.0,58.0 L858.0,40.7 M853.5,48.5 L858.3,48.1 M853.5,48.5 L851.5,44.1 M856.2,43.8 L861.0,43.4 M856.2,43.8 L854.2,39.4" stroke="#cfe4f5" stroke-width="1.4" fill="none" stroke-linecap="round" opacity="0.9" style="animation:shim 7s ease-in-out -1s infinite"/><path d="M34.0,508.0 L56.0,508.0 M46.1,508.0 L49.1,512.3 M46.1,508.0 L49.1,503.7 M52.0,508.0 L55.1,512.3 M52.0,508.0 L55.1,503.7 M34.0,508.0 L45.0,527.1 M40.1,518.5 L37.8,523.3 M40.1,518.5 L45.3,518.9 M43.0,523.6 L40.8,528.4 M43.0,523.6 L48.3,524.1 M34.0,508.0 L23.0,527.1 M28.0,518.5 L22.7,518.9 M28.0,518.5 L30.2,523.3 M25.0,523.6 L19.7,524.1 M25.0,523.6 L27.2,528.4 M34.0,508.0 L12.0,508.0 M21.9,508.0 L18.9,503.7 M21.9,508.0 L18.9,512.3 M16.0,508.0 L12.9,503.7 M16.0,508.0 L12.9,512.3 M34.0,508.0 L23.0,488.9 M27.9,497.5 L30.2,492.7 M27.9,497.5 L22.7,497.1 M25.0,492.4 L27.2,487.6 M25.0,492.4 L19.7,491.9 M34.0,508.0 L45.0,488.9 M40.1,497.5 L45.3,497.1 M40.1,497.5 L37.8,492.7 M43.0,492.4 L48.3,491.9 M43.0,492.4 L40.8,487.6" stroke="#cfe4f5" stroke-width="1.4" fill="none" stroke-linecap="round" opacity="0.9" style="animation:shim 8s ease-in-out -2s infinite"/><path d="M860.0,526.0 L888.0,526.0 M875.4,526.0 L879.3,531.5 M875.4,526.0 L879.3,520.5 M883.0,526.0 L886.8,531.5 M883.0,526.0 L886.8,520.5 M860.0,526.0 L874.0,550.2 M867.7,539.3 L864.9,545.4 M867.7,539.3 L874.4,539.9 M871.5,545.9 L868.6,552.0 M871.5,545.9 L878.2,546.5 M860.0,526.0 L846.0,550.2 M852.3,539.3 L845.6,539.9 M852.3,539.3 L855.1,545.4 M848.5,545.9 L841.8,546.5 M848.5,545.9 L851.4,552.0 M860.0,526.0 L832.0,526.0 M844.6,526.0 L840.7,520.5 M844.6,526.0 L840.7,531.5 M837.0,526.0 L833.2,520.5 M837.0,526.0 L833.2,531.5 M860.0,526.0 L846.0,501.8 M852.3,512.7 L855.1,506.6 M852.3,512.7 L845.6,512.1 M848.5,506.1 L851.4,500.0 M848.5,506.1 L841.8,505.5 M860.0,526.0 L874.0,501.8 M867.7,512.7 L874.4,512.1 M867.7,512.7 L864.9,506.6 M871.5,506.1 L878.2,505.5 M871.5,506.1 L868.6,500.0" stroke="#cfe4f5" stroke-width="1.4" fill="none" stroke-linecap="round" opacity="0.9" style="animation:shim 9s ease-in-out -3s infinite"/><path d="M780.0,488.0 L794.0,488.0 M787.7,488.0 L789.6,490.8 M787.7,488.0 L789.6,485.2 M791.5,488.0 L793.4,490.8 M791.5,488.0 L793.4,485.2 M780.0,488.0 L787.0,500.1 M783.9,494.7 L782.4,497.7 M783.9,494.7 L787.2,495.0 M785.7,497.9 L784.3,501.0 M785.7,497.9 L789.1,498.2 M780.0,488.0 L773.0,500.1 M776.1,494.7 L772.8,495.0 M776.1,494.7 L777.6,497.7 M774.3,497.9 L770.9,498.2 M774.3,497.9 L775.7,501.0 M780.0,488.0 L766.0,488.0 M772.3,488.0 L770.4,485.2 M772.3,488.0 L770.4,490.8 M768.5,488.0 L766.6,485.2 M768.5,488.0 L766.6,490.8 M780.0,488.0 L773.0,475.9 M776.1,481.3 L777.6,478.3 M776.1,481.3 L772.8,481.0 M774.3,478.1 L775.7,475.0 M774.3,478.1 L770.9,477.8 M780.0,488.0 L787.0,475.9 M783.9,481.3 L787.2,481.0 M783.9,481.3 L782.4,478.3 M785.7,478.1 L789.1,477.8 M785.7,478.1 L784.3,475.0" stroke="#cfe4f5" stroke-width="1.4" fill="none" stroke-linecap="round" opacity="0.9" style="animation:shim 10s ease-in-out -4s infinite"/><path d="M120.0,538.0 L135.0,538.0 M128.2,538.0 L130.3,540.9 M128.2,538.0 L130.3,535.1 M132.3,538.0 L134.4,540.9 M132.3,538.0 L134.4,535.1 M120.0,538.0 L127.5,551.0 M124.1,545.1 L122.6,548.4 M124.1,545.1 L127.7,545.5 M126.2,548.7 L124.6,551.9 M126.2,548.7 L129.7,549.0 M120.0,538.0 L112.5,551.0 M115.9,545.1 L112.3,545.5 M115.9,545.1 L117.4,548.4 M113.9,548.7 L110.3,549.0 M113.9,548.7 L115.4,551.9 M120.0,538.0 L105.0,538.0 M111.8,538.0 L109.7,535.1 M111.8,538.0 L109.7,540.9 M107.7,538.0 L105.6,535.1 M107.7,538.0 L105.6,540.9 M120.0,538.0 L112.5,525.0 M115.9,530.9 L117.4,527.6 M115.9,530.9 L112.3,530.5 M113.8,527.3 L115.4,524.1 M113.8,527.3 L110.3,527.0 M120.0,538.0 L127.5,525.0 M124.1,530.9 L127.7,530.5 M124.1,530.9 L122.6,527.6 M126.2,527.3 L129.7,527.0 M126.2,527.3 L124.6,524.1" stroke="#cfe4f5" stroke-width="1.4" fill="none" stroke-linecap="round" opacity="0.9" style="animation:shim 11s ease-in-out -5s infinite"/><path d="M710.0,52.0 L723.0,52.0 M717.1,52.0 L718.9,54.6 M717.1,52.0 L718.9,49.4 M720.7,52.0 L722.4,54.6 M720.7,52.0 L722.4,49.4 M710.0,52.0 L716.5,63.3 M713.6,58.2 L712.3,61.0 M713.6,58.2 L716.7,58.5 M715.3,61.2 L714.0,64.1 M715.3,61.2 L718.4,61.5 M710.0,52.0 L703.5,63.3 M706.4,58.2 L703.3,58.5 M706.4,58.2 L707.7,61.0 M704.7,61.2 L701.6,61.5 M704.7,61.2 L706.0,64.1 M710.0,52.0 L697.0,52.0 M702.9,52.0 L701.1,49.4 M702.9,52.0 L701.1,54.6 M699.3,52.0 L697.6,49.4 M699.3,52.0 L697.6,54.6 M710.0,52.0 L703.5,40.7 M706.4,45.8 L707.7,43.0 M706.4,45.8 L703.3,45.5 M704.7,42.8 L706.0,39.9 M704.7,42.8 L701.6,42.5 M710.0,52.0 L716.5,40.7 M713.6,45.8 L716.7,45.5 M713.6,45.8 L712.3,43.0 M715.3,42.8 L718.4,42.5 M715.3,42.8 L714.0,39.9" stroke="#cfe4f5" stroke-width="1.4" fill="none" stroke-linecap="round" opacity="0.9" style="animation:shim 12s ease-in-out -6s infinite"/><path d="M200.0,44.0 L211.0,44.0 M206.1,44.0 L207.6,46.2 M206.1,44.0 L207.6,41.8 M209.0,44.0 L210.5,46.2 M209.0,44.0 L210.5,41.8 M200.0,44.0 L205.5,53.5 M203.0,49.2 L201.9,51.6 M203.0,49.2 L205.7,49.5 M204.5,51.8 L203.4,54.2 M204.5,51.8 L207.1,52.0 M200.0,44.0 L194.5,53.5 M197.0,49.2 L194.3,49.5 M197.0,49.2 L198.1,51.6 M195.5,51.8 L192.9,52.0 M195.5,51.8 L196.6,54.2 M200.0,44.0 L189.0,44.0 M193.9,44.0 L192.4,41.8 M193.9,44.0 L192.4,46.2 M191.0,44.0 L189.5,41.8 M191.0,44.0 L189.5,46.2 M200.0,44.0 L194.5,34.5 M197.0,38.8 L198.1,36.4 M197.0,38.8 L194.3,38.5 M195.5,36.2 L196.6,33.8 M195.5,36.2 L192.9,36.0 M200.0,44.0 L205.5,34.5 M203.0,38.8 L205.7,38.5 M203.0,38.8 L201.9,36.4 M204.5,36.2 L207.1,36.0 M204.5,36.2 L203.4,33.8" stroke="#cfe4f5" stroke-width="1.4" fill="none" stroke-linecap="round" opacity="0.9" style="animation:shim 13s ease-in-out -7s infinite"/>
</g>
<rect x="0.75" y="0.75" width="898.5" height="576.5" rx="18" fill="none" stroke="#C8DCEC" stroke-width="1.5"/>
</svg>