<svg xmlns="http://www.w3.org/2000/svg" width="900" height="480" viewBox="0 0 900 480" role="img" aria-label="Snowy terminal: whoami, hobbies, skills and projects for Tushar Saharan">
<defs>
<linearGradient id="surf" x1="0" y1="0" x2="0" y2="1">
  <stop offset="0" stop-color="#FBFDFF"/><stop offset="1" stop-color="#EAF2FA"/>
</linearGradient>
<linearGradient id="bar" x1="0" y1="0" x2="0" y2="1">
  <stop offset="0" stop-color="#F4F9FF"/><stop offset="1" stop-color="#DCE9F5"/>
</linearGradient>
<linearGradient id="ice" x1="0" y1="0" x2="1" y2="1">
  <stop offset="0" stop-color="#ffffff" stop-opacity=".95"/><stop offset="1" stop-color="#CFE4F5" stop-opacity=".25"/>
</linearGradient>
<radialGradient id="frost" cx="50%" cy="0%" r="95%">
  <stop offset="0" stop-color="#ffffff" stop-opacity=".9"/><stop offset="1" stop-color="#ffffff" stop-opacity="0"/>
</radialGradient>
<clipPath id="win"><rect x="0" y="0" width="900" height="480" rx="16"/></clipPath>
<clipPath id="c0"><rect class="ln0" x="40" y="98" width="900" height="20" style="transform-origin:40px 0"/></clipPath>
<clipPath id="c1"><rect class="ln1" x="40" y="120" width="900" height="20" style="transform-origin:40px 0"/></clipPath>
<clipPath id="c2"><rect class="ln2" x="40" y="154" width="900" height="20" style="transform-origin:40px 0"/></clipPath>
<clipPath id="c3"><rect class="ln3" x="40" y="176" width="900" height="20" style="transform-origin:40px 0"/></clipPath>
<clipPath id="c4"><rect class="ln4" x="40" y="210" width="900" height="20" style="transform-origin:40px 0"/></clipPath>
<clipPath id="c5"><rect class="ln5" x="40" y="232" width="900" height="20" style="transform-origin:40px 0"/></clipPath>
<clipPath id="c6"><rect class="ln6" x="40" y="254" width="900" height="20" style="transform-origin:40px 0"/></clipPath>
<clipPath id="c7"><rect class="ln7" x="40" y="276" width="900" height="20" style="transform-origin:40px 0"/></clipPath>
<clipPath id="c8"><rect class="ln8" x="40" y="298" width="900" height="20" style="transform-origin:40px 0"/></clipPath>
<clipPath id="c9"><rect class="ln9" x="40" y="332" width="900" height="20" style="transform-origin:40px 0"/></clipPath>
<clipPath id="c10"><rect class="ln10" x="40" y="354" width="900" height="20" style="transform-origin:40px 0"/></clipPath>
<clipPath id="c11"><rect class="ln11" x="40" y="376" width="900" height="20" style="transform-origin:40px 0"/></clipPath>
<clipPath id="c12"><rect class="ln12" x="40" y="398" width="900" height="20" style="transform-origin:40px 0"/></clipPath>
<clipPath id="c13"><rect class="ln13" x="40" y="432" width="900" height="20" style="transform-origin:40px 0"/></clipPath>
<style>
.m{font-family:'SFMono-Regular',ui-monospace,'DejaVu Sans Mono',Menlo,Consolas,monospace;font-size:13.5px;letter-spacing:.2px}
.usr{fill:#2E6E9E;font-weight:700}
.pth{fill:#6E97B7}
.dim{fill:#9DB6C9}
.arw{fill:#4E8FBF;font-weight:700}
.cmd{fill:#1C2F42;font-weight:700}
.out{fill:#3C566C}
.key{fill:#7FA8C6;font-weight:700}
.ttl{font-family:ui-monospace,'DejaVu Sans Mono',Menlo,monospace;font-size:12px;fill:#6E8DA6;letter-spacing:1.2px}
.cur{fill:#2E6E9E;animation:blink 1.05s steps(1) infinite}
@keyframes blink{0%,49%{opacity:1}50%,100%{opacity:0}}
@keyframes shim{0%,100%{opacity:.35}50%{opacity:1}}
.ln0{animation:t0 22.0s linear infinite}
@keyframes t0{0%,1.8%{transform:scaleX(0)}3.6%,100%{transform:scaleX(1)}}
.ln1{animation:t1 22.0s linear infinite}
@keyframes t1{0%,3.6%{transform:scaleX(0)}6.8%,100%{transform:scaleX(1)}}
.ln2{animation:t2 22.0s linear infinite}
@keyframes t2{0%,7.2%{transform:scaleX(0)}9.5%,100%{transform:scaleX(1)}}
.ln3{animation:t3 22.0s linear infinite}
@keyframes t3{0%,9.5%{transform:scaleX(0)}12.7%,100%{transform:scaleX(1)}}
.ln4{animation:t4 22.0s linear infinite}
@keyframes t4{0%,13.1%{transform:scaleX(0)}16.3%,100%{transform:scaleX(1)}}
.ln5{animation:t5 22.0s linear infinite}
@keyframes t5{0%,16.3%{transform:scaleX(0)}20.9%,100%{transform:scaleX(1)}}
.ln6{animation:t6 22.0s linear infinite}
@keyframes t6{0%,20.9%{transform:scaleX(0)}25.5%,100%{transform:scaleX(1)}}
.ln7{animation:t7 22.0s linear infinite}
@keyframes t7{0%,25.5%{transform:scaleX(0)}30.0%,100%{transform:scaleX(1)}}
.ln8{animation:t8 22.0s linear infinite}
@keyframes t8{0%,30.0%{transform:scaleX(0)}34.5%,100%{transform:scaleX(1)}}
.ln9{animation:t9 22.0s linear infinite}
@keyframes t9{0%,35.0%{transform:scaleX(0)}39.5%,100%{transform:scaleX(1)}}
.ln10{animation:t10 22.0s linear infinite}
@keyframes t10{0%,39.5%{transform:scaleX(0)}45.0%,100%{transform:scaleX(1)}}
.ln11{animation:t11 22.0s linear infinite}
@keyframes t11{0%,45.0%{transform:scaleX(0)}50.5%,100%{transform:scaleX(1)}}
.ln12{animation:t12 22.0s linear infinite}
@keyframes t12{0%,50.5%{transform:scaleX(0)}56.0%,100%{transform:scaleX(1)}}
.ln13{animation:t13 22.0s linear infinite}
@keyframes t13{0%,56.5%{transform:scaleX(0)}57.0%,100%{transform:scaleX(1)}}
@keyframes fall0{0%{transform:translate(0,-20px)}100%{transform:translate(2px,510px)}}
@keyframes fall1{0%{transform:translate(0,-20px)}100%{transform:translate(-22px,510px)}}
@keyframes fall2{0%{transform:translate(0,-20px)}100%{transform:translate(7px,510px)}}
@keyframes fall3{0%{transform:translate(0,-20px)}100%{transform:translate(19px,510px)}}
@keyframes fall4{0%{transform:translate(0,-20px)}100%{transform:translate(-17px,510px)}}
@keyframes fall5{0%{transform:translate(0,-20px)}100%{transform:translate(-23px,510px)}}
</style>
</defs>
<g clip-path="url(#win)">
  <rect x="0" y="0" width="900" height="480" fill="url(#surf)"/>
  <g><circle cx="298.5" cy="-10" r="1.3" fill="#ffffff" opacity="0.63" style="animation:fall0 16.2s linear -1.4s infinite"/><circle cx="69.9" cy="-10" r="1.9" fill="#ffffff" opacity="0.50" style="animation:fall1 9.4s linear -8.7s infinite"/><circle cx="385.1" cy="-10" r="2.3" fill="#ffffff" opacity="0.92" style="animation:fall2 10.4s linear -4.5s infinite"/><circle cx="516.3" cy="-10" r="1.7" fill="#ffffff" opacity="0.59" style="animation:fall3 19.7s linear -0.9s infinite"/><circle cx="144.1" cy="-10" r="1.3" fill="#ffffff" opacity="0.74" style="animation:fall4 12.4s linear -16.3s infinite"/><circle cx="569.5" cy="-10" r="1.7" fill="#ffffff" opacity="0.55" style="animation:fall5 15.0s linear -1.3s infinite"/><circle cx="605.1" cy="-10" r="1.7" fill="#ffffff" opacity="0.60" style="animation:fall0 12.5s linear -11.7s infinite"/><circle cx="703.2" cy="-10" r="2.1" fill="#ffffff" opacity="0.89" style="animation:fall1 11.7s linear -11.5s infinite"/><circle cx="647.3" cy="-10" r="1.5" fill="#ffffff" opacity="0.83" style="animation:fall2 19.8s linear -2.4s infinite"/><circle cx="150.7" cy="-10" r="1.8" fill="#ffffff" opacity="0.74" style="animation:fall3 9.4s linear -13.4s infinite"/><circle cx="772.9" cy="-10" r="1.6" fill="#ffffff" opacity="0.68" style="animation:fall4 16.6s linear -11.9s infinite"/><circle cx="742.4" cy="-10" r="2.5" fill="#ffffff" opacity="0.80" style="animation:fall5 14.2s linear -13.3s infinite"/><circle cx="576.5" cy="-10" r="2.6" fill="#ffffff" opacity="0.78" style="animation:fall0 18.0s linear -5.7s infinite"/><circle cx="39.4" cy="-10" r="1.8" fill="#ffffff" opacity="0.83" style="animation:fall1 10.8s linear -2.3s infinite"/><circle cx="131.2" cy="-10" r="1.5" fill="#ffffff" opacity="0.67" style="animation:fall2 13.3s linear -17.4s infinite"/><circle cx="492.5" cy="-10" r="2.4" fill="#ffffff" opacity="0.66" style="animation:fall3 18.0s linear -17.3s infinite"/><circle cx="328.5" cy="-10" r="2.4" fill="#ffffff" opacity="0.57" style="animation:fall4 19.5s linear -3.0s infinite"/><circle cx="220.7" cy="-10" r="1.8" fill="#ffffff" opacity="0.66" style="animation:fall5 15.5s linear -5.3s infinite"/><circle cx="337.6" cy="-10" r="1.9" fill="#ffffff" opacity="0.76" style="animation:fall0 19.5s linear -13.8s infinite"/><circle cx="601.5" cy="-10" r="1.2" fill="#ffffff" opacity="0.85" style="animation:fall1 18.9s linear -15.6s infinite"/><circle cx="357.4" cy="-10" r="1.7" fill="#ffffff" opacity="0.48" style="animation:fall2 10.1s linear -12.7s infinite"/><circle cx="199.5" cy="-10" r="1.3" fill="#ffffff" opacity="0.53" style="animation:fall3 12.7s linear -1.1s infinite"/><circle cx="107.3" cy="-10" r="1.6" fill="#ffffff" opacity="0.52" style="animation:fall4 9.3s linear -17.5s infinite"/><circle cx="236.9" cy="-10" r="1.6" fill="#ffffff" opacity="0.95" style="animation:fall5 13.0s linear -2.5s infinite"/><circle cx="420.8" cy="-10" r="1.8" fill="#ffffff" opacity="0.58" style="animation:fall0 9.9s linear -2.0s infinite"/><circle cx="732.8" cy="-10" r="1.3" fill="#ffffff" opacity="0.52" style="animation:fall1 9.3s linear -19.0s infinite"/><circle cx="487.1" cy="-10" r="1.1" fill="#ffffff" opacity="0.80" style="animation:fall2 14.8s linear -19.6s infinite"/><circle cx="244.6" cy="-10" r="1.7" fill="#ffffff" opacity="0.84" style="animation:fall3 10.8s linear -15.4s infinite"/><circle cx="303.5" cy="-10" r="1.4" fill="#ffffff" opacity="0.85" style="animation:fall4 17.9s linear -19.7s infinite"/><circle cx="723.8" cy="-10" r="2.2" fill="#ffffff" opacity="0.46" style="animation:fall5 11.5s linear -10.4s infinite"/><circle cx="44.0" cy="-10" r="1.5" fill="#ffffff" opacity="0.67" style="animation:fall0 11.9s linear -13.9s infinite"/><circle cx="825.8" cy="-10" r="2.6" fill="#ffffff" opacity="0.56" style="animation:fall1 19.5s linear -7.3s infinite"/><circle cx="189.2" cy="-10" r="1.4" fill="#ffffff" opacity="0.69" style="animation:fall2 15.9s linear -18.0s infinite"/><circle cx="581.6" cy="-10" r="2.3" fill="#ffffff" opacity="0.84" style="animation:fall3 9.9s linear -13.2s infinite"/></g>
  <rect x="0" y="0" width="900" height="480" fill="url(#frost)" opacity=".55"/>
  <rect x="0" y="0" width="900" height="42" fill="url(#bar)"/>
  <line x1="0" y1="42" x2="900" y2="42" stroke="#CFE0EE" stroke-width="1"/>
  <circle cx="26" cy="21" r="5.5" fill="#BFD9EC" stroke="#ffffff" stroke-width="1.3"/>
  <circle cx="46" cy="21" r="5.5" fill="#D6E7F4" stroke="#ffffff" stroke-width="1.3"/>
  <circle cx="66" cy="21" r="5.5" fill="#E6F1FA" stroke="#ffffff" stroke-width="1.3"/>
  <text x="450.0" y="25" text-anchor="middle" class="ttl">tushar@alpine &#8212; ~</text>
  <text x="40" y="76" class="m dim">Last login: winter, somewhere above the treeline</text>

  <!-- whoami -->
  <g clip-path="url(#c0)"><text x="40" y="112" class="m usr">tushar@alpine</text><text x="157.88" y="112" class="m dim">:</text><text x="166.3" y="112" class="m pth">~</text><text x="183.14" y="112" class="m arw">$</text><text x="199.98" y="112" class="m cmd">whoami</text></g>
  <g clip-path="url(#c1)"><text x="40" y="134" class="m out">Tushar Saharan — Full-Stack Developer &amp; AI Engineer</text></g>

  <!-- hobbies -->
  <g clip-path="url(#c2)"><text x="40" y="168" class="m usr">tushar@alpine</text><text x="157.88" y="168" class="m dim">:</text><text x="166.3" y="168" class="m pth">~</text><text x="183.14" y="168" class="m arw">$</text><text x="199.98" y="168" class="m cmd">hobbies</text></g>
  <g clip-path="url(#c3)"><text x="40" y="190" class="m out">swimming · travelling · hiking</text></g>

  <!-- skills -->
  <g clip-path="url(#c4)"><text x="40" y="224" class="m usr">tushar@alpine</text><text x="157.88" y="224" class="m dim">:</text><text x="166.3" y="224" class="m pth">~</text><text x="183.14" y="224" class="m arw">$</text><text x="199.98" y="224" class="m cmd">skills --list</text></g>
  <g clip-path="url(#c5)"><text x="40" y="246" class="m key">languages</text><text x="174.72" y="246" class="m out">TypeScript · Python · C++ · SQL</text></g>
  <g clip-path="url(#c6)"><text x="40" y="268" class="m key">frontend</text><text x="174.72" y="268" class="m out">React · Next.js · TanStack · Tailwind · Three.js</text></g>
  <g clip-path="url(#c7)"><text x="40" y="290" class="m key">backend</text><text x="174.72" y="290" class="m out">Node · Express · FastAPI · Postgres · MongoDB</text></g>
  <g clip-path="url(#c8)"><text x="40" y="312" class="m key">ai</text><text x="174.72" y="312" class="m out">Gemini · Bedrock · RAG · agentic pipelines</text></g>

  <!-- projects -->
  <g clip-path="url(#c9)"><text x="40" y="346" class="m usr">tushar@alpine</text><text x="157.88" y="346" class="m dim">:</text><text x="166.3" y="346" class="m pth">~</text><text x="183.14" y="346" class="m arw">$</text><text x="199.98" y="346" class="m cmd">projects --featured</text></g>
  <g clip-path="url(#c10)"><text x="40" y="368" class="m key">jobly</text><text x="174.72" y="368" class="m out">AI recruitment platform, weighted ATS scoring</text></g>
  <g clip-path="url(#c11)"><text x="40" y="390" class="m key">needspeak</text><text x="174.72" y="390" class="m out">intent-to-cart, hybrid BM25 + vector search</text></g>
  <g clip-path="url(#c12)"><text x="40" y="412" class="m key">civic-pulse</text><text x="174.72" y="412" class="m out">realtime civic reporting, DBSCAN hotspots</text></g>

  <!-- prompt & cursor -->
  <g clip-path="url(#c13)"><text x="40" y="446" class="m arw">$</text><rect x="56.84" y="435" width="9" height="15" class="cur"/></g>

  <!-- Ice frost borders & corners -->
  <path d="M0,74 L40,94 L26,122 L64,140 L48,172 L86,186 L70,222 L0,204 Z" fill="url(#ice)" opacity=".55"/>
  <path d="M900,74 L854,98 L872,128 L830,148 L848,180 L804,194 L822,230 L900,210 Z" fill="url(#ice)" opacity=".5"/>
  <path d="M0,480 L0,380 L38,404 L24,436 L62,454 L46,474 L92,480 Z" fill="url(#ice)" opacity=".45"/>
  <path d="M900,480 L900,360 L856,388 L876,422 L832,444 L856,470 L796,480 Z" fill="url(#ice)" opacity=".42"/>
  <path d="M0,42 L60,68 L120,46 L186,74 L250,48 L316,76 L380,46 L450,74 L520,48 L590,76 L656,46 L722,74 L790,48 L850,70 L900,46 L900,42 Z" fill="#ffffff" opacity=".9"/>
  <path d="M0,42 L60,68 L120,46 L186,74 L250,48 L316,76 L380,46 L450,74 L520,48 L590,76 L656,46 L722,74 L790,48 L850,70 L900,46" fill="none" stroke="#CFE4F5" stroke-width="1.2" opacity=".8"/>

  <!-- Decorative frost snowflakes -->
  <path d="M58.0,55.0 L84.0,55.0 M72.3,55.0 L75.9,60.1 M72.3,55.0 L75.9,49.9 M79.3,55.0 L82.9,60.1 M79.3,55.0 L82.9,49.9 M58.0,55.0 L71.0,77.5 M65.2,67.4 L62.5,73.0 M65.2,67.4 L71.4,67.9 M68.7,73.5 L66.0,79.1 M68.7,73.5 L74.9,74.0 M58.0,55.0 L45.0,77.5 M50.9,67.4 L44.6,67.9 M50.9,67.4 L53.5,73.0 M47.3,73.5 L41.1,74.0 M47.3,73.5 L50.0,79.1 M58.0,55.0 L32.0,55.0 M43.7,55.0 L40.1,49.9 M43.7,55.0 L40.1,60.1 M36.7,55.0 L33.1,49.9 M36.7,55.0 L33.1,60.1 M58.0,55.0 L45.0,32.5 M50.8,42.6 L53.5,37.0 M50.8,42.6 L44.6,42.1 M47.3,36.5 L50.0,30.9 M47.3,36.5 L41.1,36.0 M58.0,55.0 L71.0,32.5 M65.2,42.6 L71.4,42.1 M65.2,42.6 L62.5,37.0 M68.7,36.5 L74.9,36.0 M68.7,36.5 L66.0,30.9" stroke="#cfe4f5" stroke-width="1.4" fill="none" stroke-linecap="round" opacity="0.9" style="animation:shim 6s ease-in-out 0s infinite"/>
  <path d="M848.0,52.0 L868.0,52.0 M859.0,52.0 L861.8,55.9 M859.0,52.0 L861.8,48.1 M864.4,52.0 L867.2,55.9 M864.4,52.0 L867.2,48.1 M848.0,52.0 L858.0,69.3 M853.5,61.5 L851.5,65.9 M853.5,61.5 L858.3,61.9 M856.2,66.2 L854.2,70.6 M856.2,66.2 L861.0,66.6 M848.0,52.0 L838.0,69.3 M842.5,61.5 L837.7,61.9 M842.5,61.5 L844.5,65.9 M839.8,66.2 L835.0,66.6 M839.8,66.2 L841.8,70.6 M848.0,52.0 L828.0,52.0 M837.0,52.0 L834.2,48.1 M837.0,52.0 L834.2,55.9 M831.6,52.0 L828.8,48.1 M831.6,52.0 L828.8,55.9 M848.0,52.0 L838.0,34.7 M842.5,42.5 L844.5,38.1 M842.5,42.5 L837.7,42.1 M839.8,37.8 L841.8,33.4 M839.8,37.8 L835.0,37.4 M848.0,52.0 L858.0,34.7 M853.5,42.5 L858.3,42.1 M853.5,42.5 L851.5,38.1 M856.2,37.8 L861.0,37.4 M856.2,37.8 L854.2,33.4" stroke="#cfe4f5" stroke-width="1.4" fill="none" stroke-linecap="round" opacity="0.9" style="animation:shim 7s ease-in-out -1s infinite"/>
  <path d="M34.0,430.0 L56.0,430.0 M46.1,430.0 L49.1,434.3 M46.1,430.0 L49.1,425.7 M52.0,430.0 L55.1,434.3 M52.0,430.0 L55.1,425.7 M34.0,430.0 L45.0,449.1 M40.1,440.5 L37.8,445.3 M40.1,440.5 L45.3,440.9 M43.0,445.6 L40.8,450.4 M43.0,445.6 L48.3,446.1 M34.0,430.0 L23.0,449.1 M28.0,440.5 L22.7,440.9 M28.0,440.5 L30.2,445.3 M25.0,445.6 L19.7,446.1 M25.0,445.6 L27.2,450.4 M34.0,430.0 L12.0,430.0 M21.9,430.0 L18.9,425.7 M21.9,430.0 L18.9,434.3 M16.0,430.0 L12.9,425.7 M16.0,430.0 L12.9,434.3 M34.0,430.0 L23.0,410.9 M27.9,419.5 L30.2,414.7 M27.9,419.5 L22.7,419.1 M25.0,414.4 L27.2,409.6 M25.0,414.4 L19.7,403.9 M34.0,430.0 L45.0,410.9 M40.1,419.5 L45.3,419.1 M40.1,419.5 L37.8,414.7 M43.0,414.4 L48.3,413.9 M43.0,414.4 L40.8,409.6" stroke="#cfe4f5" stroke-width="1.4" fill="none" stroke-linecap="round" opacity="0.9" style="animation:shim 8s ease-in-out -2s infinite"/>
  <path d="M860.0,430.0 L888.0,430.0 M875.4,430.0 L879.3,435.5 M875.4,430.0 L879.3,424.5 M883.0,430.0 L886.8,435.5 M883.0,430.0 L886.8,424.5 M860.0,430.0 L874.0,454.2 M867.7,443.3 L864.9,449.4 M867.7,443.3 L874.4,443.9 M871.5,449.9 L868.6,456.0 M871.5,449.9 L878.2,450.5 M860.0,430.0 L846.0,454.2 M852.3,443.3 L845.6,443.9 M852.3,443.3 L855.1,449.4 M848.5,449.9 L841.8,450.5 M848.5,449.9 L851.4,456.0 M860.0,430.0 L832.0,430.0 M844.6,430.0 L840.7,424.5 M844.6,430.0 L840.7,435.5 M837.0,430.0 L833.2,424.5 M837.0,430.0 L833.2,435.5 M860.0,430.0 L846.0,405.8 M852.3,416.7 L855.1,410.6 M852.3,416.7 L845.6,416.1 M848.5,410.1 L851.4,404.0 M848.5,410.1 L841.8,409.5 M860.0,430.0 L874.0,405.8 M867.7,416.7 L874.4,416.1 M867.7,416.7 L864.9,410.6 M871.5,410.1 L878.2,409.5 M871.5,410.1 L868.6,404.0" stroke="#cfe4f5" stroke-width="1.4" fill="none" stroke-linecap="round" opacity="0.9" style="animation:shim 9s ease-in-out -3s infinite"/>
</g>
<rect x="0.75" y="0.75" width="898.5" height="478.5" rx="16" fill="none" stroke="#C8DCEC" stroke-width="1.5"/>
</svg>